<?xml version="1.0" encoding="UTF-8" standalone="no"?>
<!-- Created with Inkscape (http://www.inkscape.org/) -->

<svg
   xmlns:dc="http://purl.org/dc/elements/1.1/"
   xmlns:cc="http://creativecommons.org/ns#"
   xmlns:rdf="http://www.w3.org/1999/02/22-rdf-syntax-ns#"
   xmlns:svg="http://www.w3.org/2000/svg"
   xmlns="http://www.w3.org/2000/svg"
   xmlns:sodipodi="http://sodipodi.sourceforge.net/DTD/sodipodi-0.dtd"
   xmlns:inkscape="http://www.inkscape.org/namespaces/inkscape"
   width="186.34396"
   height="110.44805"
   id="svg3098"
   version="1.1"
   inkscape:version="0.48.3.1 r9886"
   sodipodi:docname="New document 7">
  <defs
     id="defs3100" />
  <sodipodi:namedview
     id="base"
     pagecolor="#ffffff"
     bordercolor="#666666"
     borderopacity="1.0"
     inkscape:pageopacity="0.0"
     inkscape:pageshadow="2"
     inkscape:zoom="5.6"
     inkscape:cx="93.171981"
     inkscape:cy="98.08117"
     inkscape:document-units="px"
     inkscape:current-layer="layer1"
     showgrid="false"
     fit-margin-top="0"
     fit-margin-left="0"
     fit-margin-right="0"
     fit-margin-bottom="0"
     inkscape:window-width="1116"
     inkscape:window-height="684"
     inkscape:window-x="65"
     inkscape:window-y="24"
     inkscape:window-maximized="0" />
  <metadata
     id="metadata3103">
    <rdf:RDF>
      <cc:Work
         rdf:about="">
        <dc:format>image/svg+xml</dc:format>
        <dc:type
           rdf:resource="http://purl.org/dc/dcmitype/StillImage" />
        <dc:title></dc:title>
      </cc:Work>
    </rdf:RDF>
  </metadata>
  <g
     inkscape:label="Layer 1"
     inkscape:groupmode="layer"
     id="layer1"
     transform="translate(-281.82802,-477.13816)">
    <g
       transform="translate(281.17198,477.63816)"
       id="g3064">
      <path
         style="fill:#aba98a"
         d="M 52.933614,109.23053 C 50.68233,108.18058 46.566244,104.75235 45.452962,103 44.928833,102.175 44.275,93.85 44,84.5 L 43.5,67.5 34,66.779553 C 28.775,66.383308 22.613735,65.343608 20.3083,64.46911 11.959014,61.302058 6.0223103,53.097238 6.0055769,44.702034 6.0020524,42.933744 5.0431777,41.081044 3.4,39.667642 -0.28135946,36.50107 -0.25422578,30.47559 3.4557637,27.284392 c 3.123537,-2.686754 8.6696413,-3.04314 10.6284093,-0.68297 1.047771,1.262486 2.396476,1.4623 6.372444,0.944089 8.301439,-1.081974 9.41203,-1.593745 11.717631,-5.399594 C 33.38904,20.140663 35.883536,16.925 37.717573,15 c 3.333401,-3.498728 3.338348,-3.500122 13.615145,-3.835466 8.44809,-0.275671 10.515069,-0.05287 11.596352,1.25 C 63.652771,13.28654 65.111218,14 66.170064,14 c 1.058846,0 4.12724,2.202066 6.818654,4.89348 6.323502,6.323501 8.355535,12.727929 7.85998,24.772558 -0.311325,7.566833 -0.214416,8.146092 0.90417,5.404581 C 82.441945,47.381778 83.454445,46 84.002868,46 84.636808,46 85,37.622565 85,23 85,8.3333333 85.362319,0 86,0 c 0.637055,0 1,8.1711896 1,22.513569 0,12.382463 0.422819,23.294963 0.939597,24.25 0.516778,0.955037 1.200352,2.973931 1.519052,4.486431 L 90.038104,54 120.01905,54 150,54 l 0,-2.30887 c 0,-1.269879 0.66069,-3.182379 1.4682,-4.25 1.18867,-1.571561 1.47425,-6.272471 1.5,-24.69113 C 152.98844,8.2712022 153.36357,0 154,0 c 0.63755,0 1,8.2976704 1,22.893011 0,19.426853 0.22711,22.980162 1.5,23.468615 0.93011,0.356915 1.5,1.879389 1.5,4.007248 0,3.291658 0.20409,3.480605 5.00308,4.631866 2.7517,0.660121 5.29097,1.666028 5.64283,2.235347 0.93304,1.509698 5.34295,-6.264261 5.34897,-9.429383 C 173.99991,45.162473 177.07753,42 179.64578,42 c 0.66042,0 2.5853,1.165002 4.27749,2.588894 2.47777,2.084904 3.07673,3.356535 3.07673,6.532118 0,4.490388 -2.00886,9.867214 -5.35209,14.325161 -1.68206,2.242897 -2.09863,3.717691 -1.56874,5.553827 0.39681,1.375 0.76633,8.934847 0.82115,16.79966 0.0774,11.101895 -0.24647,14.96904 -1.44822,17.29296 -2.841,5.49389 -10.06189,6.48374 -15.73798,2.15738 -1.98436,-1.5125 -4.13642,-3.9875 -4.78235,-5.5 L 157.75736,99 112.37868,99 67,99 l 0,2.44424 c 0,3.90031 -3.901222,7.6164 -8.501563,8.09812 -2.19914,0.23028 -4.703311,0.09 -5.564823,-0.31183 z M 86.729167,48.395833 c -0.332292,-0.332291 -1.194792,-0.367818 -1.916667,-0.07895 -0.797733,0.319226 -0.560776,0.556183 0.604167,0.604167 1.054166,0.04342 1.644791,-0.192928 1.3125,-0.52522 z m 69.000003,0 c -0.3323,-0.332291 -1.1948,-0.367818 -1.91667,-0.07895 -0.79773,0.319226 -0.56078,0.556183 0.60417,0.604167 1.05416,0.04342 1.64479,-0.192928 1.3125,-0.52522 z"
         id="path3078"
         inkscape:connector-curvature="0" />
      <path
         style="fill:#9e916f"
         d="m 52,108.19362 c -1.925,-1.04326 -4.5125,-3.38016 -5.75,-5.19311 C 44.14468,99.916192 44,98.661493 44,83.488041 l 0,-16.216193 -4.639571,-0.635924 c -2.551764,-0.349758 -6.714264,-0.638434 -9.25,-0.641501 C 23.079081,65.985918 18.703565,64.371446 13.645613,59.919259 9.1483382,55.960599 6,49.274844 6,43.683169 6,42.608564 4.875,40.686727 3.5,39.41242 -0.22070152,35.96419 0.06557623,30.964053 4.1820165,27.500297 6.684646,25.394473 8.0162134,24.953243 10.418624,25.433725 c 1.680024,0.336005 3.641952,1.19828 4.359838,1.916166 1.037808,1.037808 2.674433,1.080668 7.987581,0.209179 6.367266,-1.04439 6.82247,-1.307367 9.654548,-5.577569 C 38.328842,13.073052 41.935892,11 51.528079,11 c 11.62899,0 22.364798,6.274788 26.519628,15.5 2.278256,5.058547 3.358171,16.553717 2.139,22.768624 -0.5145,2.622743 -0.591329,4.981306 -0.17073,5.24125 0.420598,0.259944 1.057031,-1.085503 1.414295,-2.989882 0.357263,-1.904379 1.522962,-4.074255 2.590441,-4.821947 1.80989,-1.267696 1.960371,-2.90617 2.229813,-24.278742 L 86.539467,-0.5 86.769734,23.05 c 0.126646,12.9525 0.64564,23.9775 1.153319,24.5 0.507679,0.5225 1.070179,2.3 1.25,3.95 l 0.326947,3 30.11988,0.264469 30.11988,0.264469 0.62448,-3.905317 c 0.34347,-2.147925 1.29369,-4.162114 2.1116,-4.475976 1.2455,-0.477944 1.53388,-4.354289 1.77499,-23.859151 L 154.5387,-0.5 154.76935,22.627555 C 154.96022,41.766097 155.25872,45.969828 156.5,47 c 0.825,0.684689 1.5,2.764789 1.5,4.622445 0,3.016445 0.29401,3.378214 2.75,3.383716 1.5125,0.0034 4.03434,0.676 5.60408,1.494693 1.56974,0.818693 3.26044,1.237385 3.75711,0.930427 1.45106,-0.896802 3.56784,-5.634567 4.28236,-9.58473 0.98851,-5.464898 5.48176,-6.54499 9.96043,-2.3943 1.84553,1.71038 2.63938,3.449908 2.62406,5.75 -0.0254,3.8153 -3.20449,11.341474 -6.08831,14.413507 -1.77376,1.889531 -1.86546,2.594969 -0.85761,6.597504 0.661,2.625086 0.99167,10.129353 0.7982,18.11437 -0.32328,13.342218 -0.3889,13.691148 -3.08032,16.379768 -3.79225,3.78831 -9.13902,3.75873 -14.16975,-0.0784 -2.03746,-1.55405 -4.11538,-3.90632 -4.61761,-5.22728 L 158.0495,99 l -45.44529,0 -45.445299,0 -0.631329,2.87442 c -1.422324,6.4758 -8.53217,9.56843 -14.527582,6.3192 z M 155.56811,48.110205 c -0.34769,-0.562571 -1.37235,-0.738821 -2.27702,-0.391665 -1.44596,0.554868 -1.41186,0.71579 0.28202,1.3308 2.23576,0.811752 2.8875,0.504953 1.995,-0.939135 z M 87,48.559017 C 87,47.503542 85.080887,47.060106 84.510081,47.983688 84.164618,48.54266 84.583524,49 85.440983,49 86.298442,49 87,48.801558 87,48.559017 z"
         id="path3076"
         inkscape:connector-curvature="0" />
      <path
         style="fill:#846e4f"
         d="m 54,109.30258 c -3.511788,-1.43688 -7.923961,-5.6457 -8.923104,-8.51184 C 44.484603,99.091687 44,90.849954 44,82.475777 L 44,67.25 40.875,66.625 C 39.15625,66.28125 34.99375,65.980248 31.625,65.956107 24.485913,65.904947 19.392116,64.299196 14.477394,60.550555 9.5883317,56.821486 7.9599677,53.976248 7.1037236,47.666555 6.6033503,43.979286 5.4992822,41.193643 3.6824689,39.034483 0.62036422,35.395378 0.29754657,32.447905 2.6009136,29.159388 5.2338153,25.400394 8.6934771,24.639339 13.142377,26.84048 c 3.125833,1.546539 4.738302,1.742529 8.602275,1.045578 8.51189,-1.535303 8.909698,-1.758392 11.354985,-6.367802 C 34.417948,19.033215 35.749986,17 36.059721,17 36.369457,17 37.523578,16.160869 38.624435,15.135265 42.119341,11.879265 44.712313,11 50.819424,11 c 9.189811,0 15.833294,2.587476 21.735935,8.465621 3.697195,3.681852 5.430052,6.37767 6.450042,10.034379 1.477709,5.297649 1.802142,19.392801 0.537876,23.368313 -0.563041,1.770497 -0.411137,2.255903 0.601784,1.922988 0.745217,-0.244928 1.495514,-1.867317 1.667328,-3.605307 0.171813,-1.737991 1.17567,-3.764649 2.230792,-4.503685 1.781054,-1.247499 1.93909,-2.984628 2.207345,-24.263006 L 86.539467,-0.5 86.769734,23.190983 C 86.910268,37.649876 87.389688,47.122806 88,47.5 c 0.55,0.339919 1,2.166476 1,4.059017 L 89,55 l 30.38871,0 30.38871,0 0.63775,-3.399517 c 0.35077,-1.869734 1.30085,-3.949835 2.11129,-4.622445 1.20743,-1.002076 1.51512,-5.399591 1.70381,-24.350483 L 154.46053,-0.5 l 0.28868,22.814087 c 0.2359,18.643943 0.5741,23.249706 1.85019,25.197278 0.85884,1.310754 1.52532,2.631915 1.48106,2.935912 C 157.5822,53.869916 158.19511,55 160.54966,55 c 1.40231,0 3.96438,0.731579 5.69348,1.62573 3.06705,1.586038 3.19904,1.561527 5.40576,-1.003944 1.24408,-1.446321 2.56569,-4.3154 2.93692,-6.37573 C 175.42991,44.561345 176.64216,43 179.43535,43 182.47325,43 187,47.988837 187,51.336837 c 0,3.503696 -2.36596,9.143112 -5.63282,13.426188 -2.3724,3.110372 -2.48585,3.70862 -1.46906,7.746647 1.62605,6.457654 1.41618,26.80234 -0.31934,30.956028 -1.68816,4.04034 -6.66822,6.97965 -10.2868,6.07145 -3.55694,-0.89274 -8.2479,-4.57693 -9.91513,-7.78715 l -1.42821,-2.75 -45.39486,0 -45.394869,0 -0.631329,2.87442 C 65.379461,107.10178 58.537041,111.15896 54,109.30258 z M 88,49.059017 c 0,-1.393502 -1.83834,-2.276963 -3.106763,-1.493034 -0.77153,0.476832 -0.695806,0.944412 0.25,1.543704 C 86.928331,50.240778 88,50.22177 88,49.059017 z m 67.27047,-1.188551 c -0.60291,-0.602911 -1.66805,-0.742785 -2.36696,-0.310831 -0.9387,0.580145 -0.76548,0.968802 0.66287,1.487341 2.36753,0.859495 3.1795,0.298907 1.70409,-1.17651 z"
         id="path3074"
         inkscape:connector-curvature="0" />
      <path
         style="fill:#5f5a4c"
         d="M 49.002881,105.38364 45,101.76728 45,84.858887 45,67.950498 42.4349,66.975249 C 41.024096,66.438862 37.045614,66 33.593831,66 18.071586,66 7,57.489007 7,45.556687 7,43.109086 6.1578448,41.311691 4,39.153846 0.47141053,35.625257 0.17937846,32.312969 3.0725801,28.634859 c 2.4096943,-3.06343 8.1574009,-3.641691 10.9627029,-1.102928 1.460988,1.322176 2.689591,1.367308 8.973036,0.329619 6.586857,-1.087796 7.433208,-1.495518 8.885976,-4.280731 2.308643,-4.426076 9.562254,-11.406317 12.661301,-12.184129 4.2692,-1.071501 16.247466,0.462192 20.482047,2.622514 6.21228,3.169269 10.536338,7.563001 12.938501,13.14698 1.964309,4.566157 2.186042,6.524392 1.869143,16.507279 C 79.59256,51.634781 79.821267,55 80.615059,55 c 0.621128,0 1.413752,-1.77871 1.761385,-3.95269 0.347633,-2.173979 1.296444,-4.324497 2.108468,-4.778928 1.221398,-0.683529 1.526337,-4.793874 1.765481,-23.797311 L 86.539467,-0.5 86.769734,23.190983 C 86.910268,37.649876 87.389688,47.122806 88,47.5 c 0.55,0.339919 1,2.166476 1,4.059017 L 89,55 l 30.375,0 30.375,0 0.63688,-3.184383 c 0.35028,-1.75141 1.29786,-3.914763 2.10573,-4.80745 1.18277,-1.306944 1.52514,-6.091578 1.75786,-24.565617 l 0.289,-22.94255 0.23026,23.75 c 0.12665,13.0625 0.62276,23.75 1.10246,23.75 0.47971,0 1.14324,1.695027 1.47452,3.766727 0.54878,3.431866 0.98241,3.866811 4.87781,4.892541 2.35151,0.619197 5.19002,1.426036 6.30778,1.792975 1.63587,0.537022 2.46491,-0.10254 4.25,-3.278695 C 174.00204,52.003327 175,49.141461 175,47.813845 175,44.982218 176.69786,43 179.12327,43 181.82915,43 187,47.899364 187,50.463167 c 0,3.724032 -2.87222,10.778562 -5.95219,14.619348 -1.99696,2.490243 -2.59932,4.014692 -1.97565,5 0.49347,0.779617 0.90411,8.75044 0.91253,17.71294 0.015,15.977575 -0.0326,16.343335 -2.43924,18.749995 -4.85758,4.85759 -14.60295,2.0045 -18.0878,-5.29545 l -1.55148,-3.25 -45.2948,0 -45.294795,0 -1.187589,3.96382 c -2.393571,7.98903 -10.3172,9.57125 -17.126105,3.41982 z M 88,48.968615 c 0,-1.288937 -2.849075,-2.452874 -3.764168,-1.537781 -0.372851,0.372852 -0.01594,1.096553 0.793128,1.608226 C 86.964712,50.263268 88,50.23872 88,48.968615 z m 68,0.0904 c 0,-1.393502 -1.83834,-2.276963 -3.10676,-1.493034 -0.77153,0.476832 -0.69581,0.944412 0.25,1.543704 C 154.92833,50.240778 156,50.22177 156,49.059017 z"
         id="path3072"
         inkscape:connector-curvature="0" />
      <path
         style="fill:#6f421a"
         d="M 49.002881,105.38364 45,101.76728 45,84.858887 45,67.950498 42.4349,66.975249 C 41.024096,66.438862 37.297163,66 34.152829,66 18.416226,66 7,57.490731 7,45.761199 7,43.086363 6.2244869,41.378333 4,39.153846 0.47141053,35.625257 0.17937846,32.312969 3.0725801,28.634859 c 2.4126205,-3.06715 8.1584129,-3.640776 10.9711389,-1.095294 1.443676,1.306509 2.730293,1.375166 8.499392,0.453548 8.19738,-1.309538 8.01498,-1.206576 10.39214,-5.866195 2.199558,-4.31149 8.356658,-9.911095 11.866443,-10.791994 1.324691,-0.332477 5.398729,-0.328507 9.053418,0.0088 12.408138,1.145273 22.449846,8.68658 25.230819,18.948304 0.672298,2.480765 0.956055,8.415141 0.691317,14.45795 C 79.421993,52.858956 79.60724,55 80.664097,55 81.398843,55 82,54.030256 82,52.845012 82,50.753367 82.058786,50.743226 84,52.5 c 1.717212,1.554056 2,1.587753 2,0.238321 0,-0.86441 -0.5625,-1.772547 -1.25,-2.018083 C 84.0625,50.474702 83.798959,49.950743 84.164354,49.555884 85.309014,48.318922 89,50.974626 89,53.035184 89,54.945325 89.84872,55 119.5,55 c 29.83333,0 30.5,-0.04372 30.5,-2 0,-2.335125 1.80154,-2.680747 2.63617,-0.505744 0.31537,0.821841 0.97625,1.245284 1.46861,0.940983 C 155.52893,52.555069 155.14273,51 153.5,51 c -0.825,0 -1.5,-0.480324 -1.5,-1.067388 0,-0.648304 0.88341,-0.791698 2.25,-0.365218 2.33034,0.727241 3.7082,2.186474 3.73469,3.955246 0.008,0.562451 1.92781,1.526595 4.26531,2.14254 2.3375,0.615946 5.16454,1.420124 6.2823,1.787063 1.63587,0.537022 2.46491,-0.10254 4.25,-3.278695 C 174.00204,52.003327 175,49.106561 175,47.73629 c 0,-5.673463 6.22762,-6.014302 10.28587,-0.562948 1.79769,2.41479 1.87306,3.138401 0.77936,7.481885 -0.66594,2.644698 -2.70651,6.890448 -4.53458,9.435 -2.27747,3.170074 -3.04637,5.064544 -2.44253,6.018115 0.48469,0.765412 0.88815,8.724613 0.89657,17.687113 0.015,15.977575 -0.0326,16.343335 -2.43924,18.749995 -3.6898,3.68981 -9.40761,3.39248 -14.10693,-0.73357 -1.99709,-1.75347 -4.02834,-4.23302 -4.51388,-5.5101 L 158.04182,97.979797 112.31174,98.239898 66.581669,98.5 65.870925,101.97594 C 64.942892,106.51454 61.765735,109 56.892097,109 c -3.060758,0 -4.736671,-0.76823 -7.889216,-3.61636 z"
         id="path3070"
         inkscape:connector-curvature="0" />
      <path
         style="fill:#623616"
         d="M 48.882353,105.11765 45,101.23529 45,84.234278 C 45,64.751244 45.721405,66.039816 34.799221,66.013655 24.892729,65.989926 19.204529,64.228235 14.206107,59.635766 9.041981,54.891051 7,50.762813 7,45.067302 7,42.062681 6.4915785,40.798269 4.9521324,39.974382 1.9350985,38.359714 0.65560784,34.24565 2.0919927,30.77791 4.0847662,25.966929 9.4290736,24.510952 13.816209,27.583821 c 1.958313,1.371656 3.204285,1.424753 9.301217,0.396372 7.033926,-1.186425 7.043004,-1.192151 10.528619,-6.641044 1.918743,-2.999478 4.245823,-5.737458 5.171289,-6.084401 0.925466,-0.346943 2.170142,-1.2807 2.765945,-2.075015 1.559497,-2.079095 16.626772,-1.846549 21.823652,0.336823 5.60348,2.354197 10.892504,6.904703 13.678797,11.768796 C 79.291489,29.135998 79.5,30.601193 79.5,42.250315 c 0,9.533754 0.315341,12.750236 1.25,12.75 0.6875,-1.73e-4 1.264312,-1.012815 1.281803,-2.250315 0.02945,-2.083517 0.130098,-2.120513 1.360243,-0.5 0.730642,0.9625 1.61633,1.75 1.968197,1.75 1.180653,0 0.654451,-2.828085 -0.610243,-3.279762 -0.6875,-0.245536 -1.025,-0.680584 -0.75,-0.966773 1.137165,-1.183436 5,1.299834 5,3.214311 C 89,54.966357 89.505327,55 119.52475,55 L 150.0495,55 151,52.5 c 1.32841,-3.493984 5.71242,-3.493984 6.58936,0 0.35783,1.425722 1.34944,2.5 2.30761,2.5 0.92408,0 3.4628,0.914126 5.64159,2.031391 l 3.96144,2.031391 2.2459,-2.781391 C 172.98114,54.751626 174.24285,51.925 174.54969,50 c 0.72256,-4.533046 1.77602,-6.423503 3.80171,-6.822211 2.11596,-0.416474 7.35234,3.313415 8.14124,5.799027 0.93066,2.932252 -1.15965,9.327387 -4.83288,14.78578 -2.34101,3.47873 -3.08345,5.464083 -2.55114,6.822038 0.41295,1.053451 0.78244,9.023321 0.82109,17.710821 0.0689,15.481065 0.0214,15.844305 -2.38426,18.249995 -3.66006,3.66006 -9.40967,3.39067 -14.01957,-0.65687 -1.94904,-1.71128 -3.8146,-4.19074 -4.14569,-5.50991 L 158.77821,97.980172 112.67994,98.240086 66.581676,98.5 65.870928,101.97594 C 64.933724,106.55937 61.771994,109 56.771569,109 c -3.321104,0 -4.671313,-0.66445 -7.889216,-3.88235 z m 7.976544,-4.00928 c 0.747393,-0.47355 1.593416,-2.941664 1.880052,-5.484689 L 59.260105,91 111.38005,91.01531 c 28.66597,0.0084 52.65144,0.353314 53.30104,0.766428 0.6496,0.413113 1.3246,2.76484 1.5,5.22606 0.31882,4.473682 1.86133,5.936712 4.47133,4.240952 1.37113,-0.89085 1.58289,-3.808651 1.4489,-19.963957 -0.10021,-12.081868 -0.13404,-12.252467 -3.09871,-15.629043 L 166.00522,62.241914 120.88081,61.498035 75.756406,60.754156 72.718581,58.03986 c -2.025033,-1.809367 -2.764343,-3.156798 -2.217529,-4.041562 1.104047,-1.786385 1.530479,-5.902243 1.62815,-15.714654 C 72.27875,23.259428 67.47803,18 53.614622,18 c -7.392462,0 -9.987415,1.547666 -13.959612,8.325707 -3.533325,6.029164 -4.289231,6.480516 -13.565395,8.09992 -4.518757,0.78887 -8.833577,1.946917 -9.58849,2.573439 -3.548115,2.944674 -2.955521,13.95287 0.979566,18.196685 2.182837,2.354091 3.381726,2.676066 12.219801,3.281763 11.779091,0.807253 15.909935,1.933534 19.549508,5.330203 l 2.75,2.566465 0,17.146243 c 0,9.430433 0.3,17.446245 0.666667,17.812905 0.902984,0.90299 2.551657,0.81452 4.19223,-0.22496 z M 155,52.5 c 0,-0.825 -0.66088,-1.5 -1.46862,-1.5 -0.89459,0 -1.24363,0.586289 -0.89301,1.5 0.31659,0.825 0.97746,1.5 1.46862,1.5 C 154.59814,54 155,53.325 155,52.5 z"
         id="path3068"
         inkscape:connector-curvature="0" />
      <path
         style="fill:#583012"
         d="M 51.75,107.9199 C 50.7875,107.3593 50,106.41788 50,105.82787 c 0,-0.70056 0.506227,-0.65263 1.459041,0.13814 C 55.03314,108.93225 63,103.68528 63,98.365141 L 63,96 l 48.2,0 c 31.79777,0 47.86322,0.336778 47.21033,0.989665 -0.61598,0.615981 -18.13948,1.087964 -46.40916,1.25 L 66.581663,98.5 l -0.710742,3.47594 c -0.390907,1.91176 -1.696634,4.27426 -2.901615,5.25 -2.398741,1.94238 -8.434877,2.31574 -11.219306,0.69396 z m 113.82731,-0.23971 c -1.59809,-1.16856 -1.31911,-1.31698 2.4342,-1.29506 3.4248,0.02 4.70413,-0.51579 6.65951,-2.78905 2.37514,-2.76127 2.41472,-3.11527 2.11969,-18.954949 -0.16535,-8.877622 -0.64695,-16.831931 -1.07021,-17.676242 -0.49287,-0.983173 -0.0463,-2.311392 1.24193,-3.694191 3.29201,-3.533557 6.04128,-9.646799 6.2975,-14.003063 0.18005,-3.061185 0.54291,-3.832338 1.45134,-3.084359 3.41033,2.807977 2.17106,9.855875 -3.07365,17.480346 -2.44202,3.550063 -3.12658,5.382194 -2.5566,6.842316 0.42812,1.096734 0.81004,9.102017 0.84869,17.789517 0.0689,15.481065 0.0214,15.844305 -2.38426,18.249995 -2.78442,2.78443 -8.91689,3.36587 -11.96814,1.13474 z M 50.162601,100.69592 C 49.491383,99.887154 49.034823,92.955516 48.960544,82.445922 48.848161,66.544813 48.706959,65.352907 46.670388,63.114283 44.545344,60.778408 44.543502,60.751152 46.582244,61.809686 51.165902,64.189565 51.476839,65.471789 52,84.151103 c 0.275,9.818797 0.2176,17.851577 -0.127555,17.850627 -0.345156,-9.5e-4 -1.114585,-0.58856 -1.709844,-1.30581 z M 164.25,100.86063 c -0.6875,-0.69334 -1.25,-3.292059 -1.25,-5.774916 0,-4.095786 0.14507,-4.369219 1.5648,-2.949483 1.05141,1.051405 1.46152,2.946101 1.25,5.77492 -0.25233,3.374699 -0.56284,3.959969 -1.5648,2.949479 z M 32.911722,65.978203 C 27.26661,65.547894 21.802861,64.525755 19.625965,63.49275 15.353779,61.465465 15.332066,60.565628 19.587842,61.912895 21.189529,62.419947 26.55,63.127603 31.5,63.485465 c 4.95,0.357861 9.543135,0.69503 10.206967,0.749263 0.663832,0.05423 1.437209,0.698605 1.718615,1.431939 0.281407,0.733333 0.188272,1.267878 -0.206967,1.187877 -0.395238,-0.08 -5.03334,-0.474354 -10.306893,-0.876341 z M 121,61.016318 C 97.625,60.732343 79.065138,60.134312 79.755862,59.68736 c 0.690724,-0.446952 18.965633,-0.811283 40.610908,-0.809624 32.52234,0.0025 39.94345,0.259631 42.74414,1.481066 1.864,0.812928 2.71409,1.409601 1.88909,1.325942 -0.825,-0.08366 -20.625,-0.384452 -44,-0.668426 z M 15.531037,56.050219 c -0.368078,-0.595563 -1.157668,-0.780974 -1.754644,-0.412022 -0.661988,0.409131 -0.7965,0.203354 -0.344812,-0.527493 0.40733,-0.659073 0.200391,-1.849224 -0.459863,-2.644782 -0.660254,-0.795557 -1.422041,-4.263345 -1.69286,-7.706195 C 10.856475,39.390096 11.09635,38.108967 12.96581,35.75 14.164453,34.2375 15.863138,33 16.740667,33 c 0.877529,0 4.542718,-0.513235 8.144864,-1.140521 4.938677,-0.860034 7.249867,-1.84103 9.39777,-3.988934 1.566627,-1.566626 2.567219,-3.303392 2.223539,-3.859478 C 36.163159,23.45498 36.310379,23 36.833994,23 c 0.523616,0 1.202256,-0.652083 1.50809,-1.449072 0.390457,-1.017517 0.07565,-1.264722 -1.057056,-0.830062 -1.015947,0.389855 -1.364984,0.217522 -0.942842,-0.465517 0.368651,-0.596491 0.127136,-1.265575 -0.536701,-1.486854 -0.937787,-0.312596 -0.939177,-0.567835 -0.0062,-1.144427 C 36.459664,17.215912 37,17.358524 37,17.940983 37,18.523442 37.9,19 39,19 c 1.1,0 2,-0.588769 2,-1.308375 0,-2.019141 16.705961,-2.259149 21.377809,-0.307126 4.091792,1.70966 5.011983,3.094397 1.057091,1.59075 -3.407068,-1.295365 -16.055806,-1.248501 -18.516842,0.0686 -1.072752,0.57412 -3.312315,3.456932 -4.976807,6.406249 -3.217466,5.701037 -7.403821,8.545317 -12.59238,8.555474 -4.798288,0.0094 -10.209918,1.957952 -11.819388,4.255793 -1.954803,2.790871 -1.962712,9.766004 -0.01636,14.424289 1.436575,3.438208 1.448505,5.679311 0.01791,3.36456 z M 155.5,52.904508 C 155.5,51.307029 155.8375,50 156.25,50 c 0.4125,0 0.75,1.098442 0.75,2.440983 0,1.342541 -0.3375,2.649569 -0.75,2.904509 -0.4125,0.254939 -0.75,-0.843504 -0.75,-2.440984 z M 76.458337,41.25 C 76.492469,29.985563 76.183656,26.92148 74.75,24.29966 72.228928,19.68921 72.597669,19.066112 75.51061,23.014381 78.887632,27.591676 79.987775,32.035277 79.994423,41.125 80.001086,50.234286 79.172938,55 77.583337,55 c -0.834339,0 -1.154796,-3.916691 -1.125,-13.75 z M 87,52.440983 c 0,-1.451367 0.432842,-2.291506 1,-1.940983 0.55,0.339919 1,1.491476 1,2.559017 C 89,54.126558 88.55,55 88,55 87.45,55 87,53.848442 87,52.440983 z M 152,53.5 c -0.71755,-0.864593 -0.81474,-1.5 -0.22943,-1.5 0.5585,0 1.27447,0.675 1.59106,1.5 0.31658,0.825 0.41982,1.5 0.22943,1.5 C 153.40067,55 152.68469,54.325 152,53.5 z M 41,13.940983 c 0,-0.582459 0.45,-0.780902 1,-0.440983 0.55,0.339919 1,0.816476 1,1.059017 C 43,14.801558 42.55,15 42,15 41.45,15 41,14.523442 41,13.940983 z m 11,-0.03657 c -1.24321,-0.905952 -1.178714,-0.98838 0.376748,-0.481494 1.032212,0.336372 2.567891,0.04132 3.412622,-0.655668 C 57.059362,11.719379 57.239467,11.75967 56.829755,13 56.202484,14.898952 53.944904,15.321704 52,13.904415 z M 60.872445,13.33628 C 59.617043,11.814444 59.713202,11.783355 62,12.971735 65.352446,14.7139 65.604812,15 63.789111,15 62.939789,15 61.627289,14.251326 60.872445,13.33628 z"
         id="path3066"
         inkscape:connector-curvature="0" />
    </g>
  </g>
</svg>
